<svg width="18" height="18" viewBox="0 0 18 18" fill="none" xmlns="http://www.w3.org/2000/svg">
<path d="M3.5 2H6.5C7.32787 2 8 2.67213 8 3.5V6.5C8 7.32787 7.32787 8 6.5 8H3.5C2.67213 8 2 7.32787 2 6.5V3.5C2 2.67213 2.67213 2 3.5 2V2" stroke="white" stroke-width="1.8"/>
<path d="M11.5 2H14.5C15.3279 2 16 2.67213 16 3.5V6.5C16 7.32787 15.3279 8 14.5 8H11.5C10.6721 8 10 7.32787 10 6.5V3.5C10 2.67213 10.6721 2 11.5 2V2" stroke="white" stroke-width="1.8"/>
<path d="M3.5 10H6.5C7.32787 10 8 10.6721 8 11.5V14.5C8 15.3279 7.32787 16 6.5 16H3.5C2.67213 16 2 15.3279 2 14.5V11.5C2 10.6721 2.67213 10 3.5 10V10" stroke="white" stroke-width="1.8"/>
<path opacity="0.4" d="M11.5 10H14.5C15.3279 10 16 10.6721 16 11.5V14.5C16 15.3279 15.3279 16 14.5 16H11.5C10.6721 16 10 15.3279 10 14.5V11.5C10 10.6721 10.6721 10 11.5 10V10" stroke="white" stroke-width="1.8"/>
</svg>
