<svg width="24" height="24" viewBox="0 0 24 24" fill="none" xmlns="http://www.w3.org/2000/svg">
<path fill-rule="evenodd" clip-rule="evenodd" d="M17 2.5C17.5519 2.5 18 2.94808 18 3.5V6H20.5C21.0519 6 21.5 6.44808 21.5 7C21.5 7.55192 21.0519 8 20.5 8H18V10.5C18 11.0519 17.5519 11.5 17 11.5C16.4481 11.5 16 11.0519 16 10.5V8H13.5C12.9481 8 12.5 7.55192 12.5 7C12.5 6.44808 12.9481 6 13.5 6H16V3.5C16 2.94808 16.4481 2.5 17 2.5ZM3 4.5C3 3.67213 3.67213 3 4.5 3H9.5C10.3279 3 11 3.67213 11 4.5V9.5C11 10.3279 10.3279 11 9.5 11H4.5C3.67213 11 3 10.3279 3 9.5V4.5ZM5 5V9H9V5H5ZM2.5 17C2.5 14.5164 4.51638 12.5 7 12.5C9.48362 12.5 11.5 14.5164 11.5 17C11.5 19.4836 9.48362 21.5 7 21.5C4.51638 21.5 2.5 19.4836 2.5 17ZM7 14.5C5.62021 14.5 4.5 15.6202 4.5 17C4.5 18.3798 5.62021 19.5 7 19.5C8.37979 19.5 9.5 18.3798 9.5 17C9.5 15.6202 8.37979 14.5 7 14.5ZM13 14.5C13 13.6721 13.6721 13 14.5 13H19.5C20.3279 13 21 13.6721 21 14.5V19.5C21 20.3279 20.3279 21 19.5 21H14.5C13.6721 21 13 20.3279 13 19.5V14.5ZM15 15V19H19V15H15Z" fill="#655D67"/>
</svg>
