<svg width="16" height="16" viewBox="0 0 16 16" fill="none" xmlns="http://www.w3.org/2000/svg">
<g clip-path="url(#clip0_1992_43028)">
<path d="M1.20962 13.1041L1.91523 14.3229C2.06186 14.5795 2.27262 14.7811 2.52005 14.9277L5.04009 10.1992H0C0 10.4833 0.0733104 10.7674 0.219931 11.024L1.20962 13.1041Z" fill="#0066DA"/>
<path d="M8 5.43424L5.47995 1.07227C5.23253 1.21889 5.02176 1.42049 4.87514 1.67708L0.219931 9.37467C0.0733104 9.63126 0 9.91534 0 10.1994H5.04009L8 5.43424Z" fill="#00AC47"/>
<path d="M13.48 14.9279C13.7274 14.7622 13.9382 14.5344 14.0848 14.2445L14.3781 13.6751L15.7801 10.9313C15.9267 10.6414 16 10.3205 16 9.99951H10.8718L12.0321 12.4119L13.48 14.9279Z" fill="#EA4335"/>
<path d="M8.00003 5.4342L10.5201 1.07223C10.2726 0.925605 9.98857 0.852295 9.69533 0.852295H6.30472C6.01148 0.852295 5.7274 0.934769 5.47998 1.07223L8.00003 5.4342Z" fill="#00832D"/>
<path d="M10.9599 10.1992H5.04007L2.52002 14.9277C2.76744 15.0744 3.05152 15.1477 3.34476 15.1477H12.6552C12.9484 15.1477 13.2325 15.0652 13.4799 14.9277L10.9599 10.1992Z" fill="#2684FC"/>
<path d="M13.4525 5.70915L11.1249 1.67708C10.9782 1.42049 10.7675 1.21889 10.52 1.07227L8 5.43424L10.9599 10.1994H15.9908C15.9908 9.91534 15.9175 9.63126 15.7709 9.37467L13.4525 5.70915Z" fill="#FFBA00"/>
</g>
<defs>
<clipPath id="clip0_1992_43028">
<rect width="16" height="16" fill="white"/>
</clipPath>
</defs>
</svg>
