<svg width="24" height="24" viewBox="0 0 24 24" fill="none" xmlns="http://www.w3.org/2000/svg">
<path fill-rule="evenodd" clip-rule="evenodd" d="M8.93691 7.62495C8.93854 6.43433 9.62998 5.35252 10.7099 4.85106C11.7897 4.3496 13.0624 4.51935 13.973 5.28633C14.8837 6.05331 15.2674 7.27853 14.9569 8.42795C14.8553 8.7754 14.9494 9.15062 15.203 9.40899C15.4565 9.66736 15.8299 9.76853 16.1792 9.67352C16.5285 9.57851 16.7992 9.30215 16.8869 8.95095C17.0029 8.52562 17.0612 8.08362 17.0619 7.62495C17.0627 5.28445 15.4591 3.24848 13.1836 2.70085C10.908 2.15322 8.55371 3.23668 7.48953 5.32126C6.42534 7.40584 6.9287 9.94814 8.70691 11.47L6.67191 15.115C6.065 15.2509 5.60493 15.7473 5.51539 16.3627C5.42585 16.9782 5.72541 17.5851 6.26843 17.8883C6.81146 18.1916 7.48528 18.1282 7.96229 17.7291C8.43931 17.33 8.62055 16.678 8.41791 16.09L10.8919 11.66C11.1608 11.178 10.9885 10.5694 10.5069 10.3C9.53696 9.75922 8.93609 8.73545 8.93691 7.62495ZM11.7469 9.17895C11.1341 9.07405 10.6496 8.602 10.5287 7.99216C10.4078 7.38233 10.6756 6.76112 11.202 6.43037C11.7284 6.09961 12.4043 6.12786 12.9013 6.50141C13.3983 6.87495 13.6133 7.51634 13.4419 8.11395L15.5189 11.737C17.8814 11.0147 20.4203 12.1029 21.5264 14.312C22.6325 16.521 21.9827 19.2058 19.989 20.6647C17.9953 22.1235 15.2398 21.9305 13.4689 20.208C13.0729 19.8225 13.0644 19.1889 13.4499 18.793C13.8354 18.397 14.4689 18.3885 14.8649 18.774C15.99 19.8685 17.7605 19.9353 18.9649 18.9287C20.1693 17.9221 20.4179 16.1679 19.5405 14.8663C18.6631 13.5648 16.9438 13.1371 15.5589 13.876C15.0817 14.1315 14.4877 13.9608 14.2189 13.491L11.7469 9.17895ZM6.21691 13.617C6.56239 13.5259 6.83302 13.2574 6.92686 12.9126C7.0207 12.5679 6.92349 12.1993 6.67186 11.9456C6.42022 11.692 6.05239 11.5919 5.70691 11.683C3.25061 12.336 1.65887 14.7086 1.98614 17.229C2.31341 19.7495 4.45829 21.6369 6.99991 21.641C9.42391 21.641 11.4949 20.004 11.9639 17.688H15.9939C16.4544 18.104 17.1236 18.1936 17.6773 17.9131C18.231 17.6327 18.5548 17.0402 18.4918 16.4228C18.4288 15.8053 17.9921 15.2904 17.3932 15.1276C16.7943 14.9647 16.1569 15.1875 15.7899 15.688H11.0629C10.511 15.688 10.0629 16.136 10.0629 16.688C10.0629 18.344 8.72691 19.641 6.99991 19.641C5.45858 19.6449 4.15454 18.5026 3.95562 16.9741C3.7567 15.4457 4.7249 14.0076 6.21591 13.617H6.21691Z" fill="#655D67"/>
</svg>
