<svg width="16" height="16" viewBox="0 0 16 16" fill="none" xmlns="http://www.w3.org/2000/svg">
<path d="M13.5 2.5H4.5C4.23478 2.5 3.98043 2.60536 3.79289 2.79289C3.60536 2.98043 3.5 3.23478 3.5 3.5V4.5H2.5C2.23478 4.5 1.98043 4.60536 1.79289 4.79289C1.60536 4.98043 1.5 5.23478 1.5 5.5V12.5C1.5 12.7652 1.60536 13.0196 1.79289 13.2071C1.98043 13.3946 2.23478 13.5 2.5 13.5H11.5C11.7652 13.5 12.0196 13.3946 12.2071 13.2071C12.3946 13.0196 12.5 12.7652 12.5 12.5V11.5H13.5C13.7652 11.5 14.0196 11.3946 14.2071 11.2071C14.3946 11.0196 14.5 10.7652 14.5 10.5V3.5C14.5 3.23478 14.3946 2.98043 14.2071 2.79289C14.0196 2.60536 13.7652 2.5 13.5 2.5ZM4.5 3.5H13.5V7.42188L12.8706 6.79313C12.7778 6.70024 12.6675 6.62656 12.5462 6.57629C12.4248 6.52602 12.2948 6.50015 12.1634 6.50015C12.0321 6.50015 11.902 6.52602 11.7807 6.57629C11.6594 6.62656 11.5491 6.70024 11.4563 6.79313L10.2063 8.04313L7.45625 5.29313C7.26873 5.10573 7.01448 5.00046 6.74937 5.00046C6.48427 5.00046 6.23002 5.10573 6.0425 5.29313L4.5 6.83563V3.5ZM11.5 12.5H2.5V5.5H3.5V10.5C3.5 10.7652 3.60536 11.0196 3.79289 11.2071C3.98043 11.3946 4.23478 11.5 4.5 11.5H11.5V12.5ZM13.5 10.5H4.5V8.25L6.75 6L9.85375 9.10375C9.94751 9.19745 10.0746 9.25008 10.2072 9.25008C10.3397 9.25008 10.4669 9.19745 10.5606 9.10375L12.1644 7.5L13.5 8.83625V10.5ZM10 5.25C10 5.10166 10.044 4.95666 10.1264 4.83332C10.2088 4.70999 10.3259 4.61386 10.463 4.55709C10.6 4.50032 10.7508 4.48547 10.8963 4.51441C11.0418 4.54335 11.1754 4.61478 11.2803 4.71967C11.3852 4.82456 11.4566 4.9582 11.4856 5.10368C11.5145 5.24917 11.4997 5.39997 11.4429 5.53701C11.3861 5.67406 11.29 5.79119 11.1667 5.8736C11.0433 5.95601 10.8983 6 10.75 6C10.5511 6 10.3603 5.92098 10.2197 5.78033C10.079 5.63968 10 5.44891 10 5.25Z" fill="black"/>
</svg>
