<svg width="14" height="14" viewBox="0 0 14 14" fill="none" xmlns="http://www.w3.org/2000/svg">
<g clip-path="url(#clip0_1993_70778)">
<path fill-rule="evenodd" clip-rule="evenodd" d="M7.90866 0.913549C7.45785 0.800404 6.98005 0.901428 6.61362 1.18737C6.24719 1.4733 6.03305 1.91222 6.03322 2.37701V11.4233C6.03305 11.888 6.24719 12.327 6.61362 12.6129C6.98005 12.8988 7.45785 12.9999 7.90866 12.8867L11.7871 11.9137C12.4578 11.7453 12.9281 11.1425 12.9282 10.4511V3.34921C12.9281 2.65774 12.4578 2.05493 11.7871 1.88661L7.90866 0.913549ZM7.32604 2.37701C7.32595 2.31071 7.3564 2.24807 7.40858 2.20717C7.46075 2.16627 7.52886 2.15167 7.59322 2.16758L11.4717 3.14063C11.5676 3.16436 11.6351 3.25035 11.6354 3.34921V10.4511C11.6351 10.5499 11.5676 10.6359 11.4717 10.6596L7.59322 11.6327C7.52886 11.6486 7.46075 11.634 7.40858 11.5931C7.3564 11.5522 7.32595 11.4895 7.32604 11.4233V2.37701ZM4.094 1.72888C3.73724 1.72888 3.4476 2.01853 3.4476 2.37529V11.425C3.4476 11.7817 3.73724 12.0714 4.094 12.0714C4.45077 12.0714 4.74041 11.7817 4.74041 11.425V2.37529C4.74041 2.01853 4.45077 1.72888 4.094 1.72888ZM1.50838 2.59076C1.15162 2.59076 0.861973 2.8804 0.861973 3.23716V10.5631C0.861973 10.9199 1.15162 11.2095 1.50838 11.2095C1.86514 11.2095 2.15479 10.9199 2.15479 10.5631V3.23716C2.15479 2.8804 1.86514 2.59076 1.50838 2.59076Z" fill="#3C323E"/>
</g>
<defs>
<clipPath id="clip0_1993_70778">
<rect width="15.9964" height="16.008" fill="white" transform="matrix(-0.862069 0 0 0.862069 13.79 0)"/>
</clipPath>
</defs>
</svg>
