<svg width="14" height="14" viewBox="0 0 14 14" fill="none" xmlns="http://www.w3.org/2000/svg">
<g clip-path="url(#clip0_1993_70696)">
<path fill-rule="evenodd" clip-rule="evenodd" d="M5.88138 0.913549C6.33219 0.800404 6.80999 0.901428 7.17642 1.18737C7.54285 1.4733 7.75699 1.91222 7.75682 2.37701V11.4233C7.75699 11.888 7.54285 12.327 7.17642 12.6129C6.80999 12.8988 6.33219 12.9999 5.88138 12.8867L2.00294 11.9137C1.33227 11.7453 0.861958 11.1425 0.861816 10.4511V3.34921C0.861958 2.65774 1.33227 2.05493 2.00294 1.88661L5.88138 0.913549ZM6.464 2.37701C6.46409 2.31071 6.43364 2.24807 6.38146 2.20717C6.32929 2.16627 6.26118 2.15167 6.19682 2.16758L2.31839 3.14063C2.22242 3.16436 2.1549 3.25035 2.15463 3.34921V10.4511C2.1549 10.5499 2.22242 10.6359 2.31839 10.6596L6.19682 11.6327C6.26118 11.6486 6.32929 11.634 6.38146 11.5931C6.43364 11.5522 6.46409 11.4895 6.464 11.4233V2.37701ZM9.69604 1.72888C10.0528 1.72888 10.3424 2.01853 10.3424 2.37529V11.425C10.3424 11.7817 10.0528 12.0714 9.69604 12.0714C9.33927 12.0714 9.04963 11.7817 9.04963 11.425V2.37529C9.04963 2.01853 9.33927 1.72888 9.69604 1.72888ZM12.2817 2.59076C12.6384 2.59076 12.9281 2.8804 12.9281 3.23716V10.5631C12.9281 10.9199 12.6384 11.2095 12.2817 11.2095C11.9249 11.2095 11.6353 10.9199 11.6353 10.5631V3.23716C11.6353 2.8804 11.9249 2.59076 12.2817 2.59076Z" fill="#3C323E"/>
</g>
<defs>
<clipPath id="clip0_1993_70696">
<rect width="15.9964" height="16.008" fill="white" transform="scale(0.862069)"/>
</clipPath>
</defs>
</svg>
