<svg width="16" height="16" viewBox="0 0 16 16" fill="none" xmlns="http://www.w3.org/2000/svg">
<g clip-path="url(#clip0_1992_43003)">
<path d="M0 0H16V16H0V0Z" fill="#FAFAFA"/>
<mask id="mask0_1992_43003" style="mask-type:alpha" maskUnits="userSpaceOnUse" x="2" y="0" width="12" height="16">
<path d="M9.39773 0H3.21591C2.61591 0 2.125 0.490909 2.125 1.09091V14.9091C2.125 15.5091 2.61591 16 3.21591 16H12.6705C13.2705 16 13.7614 15.5091 13.7614 14.9091V4.36364L9.39773 0Z" fill="white"/>
</mask>
<g mask="url(#mask0_1992_43003)">
<path d="M9.39773 0H3.21591C2.61591 0 2.125 0.490909 2.125 1.09091V14.9091C2.125 15.5091 2.61591 16 3.21591 16H12.6705C13.2705 16 13.7614 15.5091 13.7614 14.9091V4.36364L11.2159 2.54545L9.39773 0Z" fill="#0F9D58"/>
</g>
<mask id="mask1_1992_43003" style="mask-type:alpha" maskUnits="userSpaceOnUse" x="2" y="0" width="12" height="16">
<path d="M9.39773 0H3.21591C2.61591 0 2.125 0.490909 2.125 1.09091V14.9091C2.125 15.5091 2.61591 16 3.21591 16H12.6705C13.2705 16 13.7614 15.5091 13.7614 14.9091V4.36364L9.39773 0Z" fill="white"/>
</mask>
<g mask="url(#mask1_1992_43003)">
<path d="M5.03418 7.81812V13.0908H10.8524V7.81812H5.03418ZM7.57963 12.3636H5.76145V11.4545H7.57963V12.3636ZM7.57963 10.909H5.76145V9.99994H7.57963V10.909ZM7.57963 9.45448H5.76145V8.54539H7.57963V9.45448ZM10.1251 12.3636H8.3069V11.4545H10.1251V12.3636ZM10.1251 10.909H8.3069V9.99994H10.1251V10.909ZM10.1251 9.45448H8.3069V8.54539H10.1251V9.45448Z" fill="#F1F1F1"/>
</g>
<mask id="mask2_1992_43003" style="mask-type:alpha" maskUnits="userSpaceOnUse" x="2" y="0" width="12" height="16">
<path d="M9.39773 0H3.21591C2.61591 0 2.125 0.490909 2.125 1.09091V14.9091C2.125 15.5091 2.61591 16 3.21591 16H12.6705C13.2705 16 13.7614 15.5091 13.7614 14.9091V4.36364L9.39773 0Z" fill="white"/>
</mask>
<g mask="url(#mask2_1992_43003)">
<path d="M9.7168 4.04443L13.7613 8.08807V4.36352L9.7168 4.04443Z" fill="url(#paint0_linear_1992_43003)"/>
</g>
<mask id="mask3_1992_43003" style="mask-type:alpha" maskUnits="userSpaceOnUse" x="2" y="0" width="12" height="16">
<path d="M9.39773 0H3.21591C2.61591 0 2.125 0.490909 2.125 1.09091V14.9091C2.125 15.5091 2.61591 16 3.21591 16H12.6705C13.2705 16 13.7614 15.5091 13.7614 14.9091V4.36364L9.39773 0Z" fill="white"/>
</mask>
<g mask="url(#mask3_1992_43003)">
<path d="M9.39771 0V3.27273C9.39771 3.87545 9.88589 4.36364 10.4886 4.36364H13.7613L9.39771 0Z" fill="#87CEAC"/>
</g>
<mask id="mask4_1992_43003" style="mask-type:alpha" maskUnits="userSpaceOnUse" x="2" y="0" width="12" height="16">
<path d="M9.39773 0H3.21591C2.61591 0 2.125 0.490909 2.125 1.09091V14.9091C2.125 15.5091 2.61591 16 3.21591 16H12.6705C13.2705 16 13.7614 15.5091 13.7614 14.9091V4.36364L9.39773 0Z" fill="white"/>
</mask>
<g mask="url(#mask4_1992_43003)">
<path d="M3.21591 0C2.61591 0 2.125 0.490909 2.125 1.09091V1.18182C2.125 0.581818 2.61591 0.0909091 3.21591 0.0909091H9.39773V0H3.21591Z" fill="white" fill-opacity="0.2"/>
</g>
<mask id="mask5_1992_43003" style="mask-type:alpha" maskUnits="userSpaceOnUse" x="2" y="0" width="12" height="16">
<path d="M9.39773 0H3.21591C2.61591 0 2.125 0.490909 2.125 1.09091V14.9091C2.125 15.5091 2.61591 16 3.21591 16H12.6705C13.2705 16 13.7614 15.5091 13.7614 14.9091V4.36364L9.39773 0Z" fill="white"/>
</mask>
<g mask="url(#mask5_1992_43003)">
<path d="M12.6705 15.9091H3.21591C2.61591 15.9091 2.125 15.4181 2.125 14.8181V14.9091C2.125 15.5091 2.61591 16 3.21591 16H12.6705C13.2705 16 13.7614 15.5091 13.7614 14.9091V14.8181C13.7614 15.4181 13.2705 15.9091 12.6705 15.9091Z" fill="#263238" fill-opacity="0.2"/>
</g>
<mask id="mask6_1992_43003" style="mask-type:alpha" maskUnits="userSpaceOnUse" x="2" y="0" width="12" height="16">
<path d="M9.39773 0H3.21591C2.61591 0 2.125 0.490909 2.125 1.09091V14.9091C2.125 15.5091 2.61591 16 3.21591 16H12.6705C13.2705 16 13.7614 15.5091 13.7614 14.9091V4.36364L9.39773 0Z" fill="white"/>
</mask>
<g mask="url(#mask6_1992_43003)">
<path d="M10.4886 4.36362C9.88589 4.36362 9.39771 3.87543 9.39771 3.27271V3.36362C9.39771 3.96634 9.88589 4.45453 10.4886 4.45453H13.7613V4.36362H10.4886Z" fill="#263238" fill-opacity="0.1"/>
</g>
<path d="M9.39773 0H3.21591C2.61591 0 2.125 0.490909 2.125 1.09091V14.9091C2.125 15.5091 2.61591 16 3.21591 16H12.6705C13.2705 16 13.7614 15.5091 13.7614 14.9091V4.36364L9.39773 0Z" fill="url(#paint1_radial_1992_43003)"/>
</g>
<defs>
<linearGradient id="paint0_linear_1992_43003" x1="11.7393" y1="4.39162" x2="11.7393" y2="8.08863" gradientUnits="userSpaceOnUse">
<stop stop-color="#263238" stop-opacity="0.2"/>
<stop offset="1" stop-color="#263238" stop-opacity="0.02"/>
</linearGradient>
<radialGradient id="paint1_radial_1992_43003" cx="0" cy="0" r="1" gradientUnits="userSpaceOnUse" gradientTransform="translate(2.49365 0.318034) scale(18.7635)">
<stop stop-color="white" stop-opacity="0.1"/>
<stop offset="1" stop-color="white" stop-opacity="0"/>
</radialGradient>
<clipPath id="clip0_1992_43003">
<rect width="16" height="16" fill="white"/>
</clipPath>
</defs>
</svg>
