<svg width="16" height="16" viewBox="0 0 16 16" fill="none" xmlns="http://www.w3.org/2000/svg">
<path d="M3.76463 9.71752C3.76248 10.5438 3.0931 11.213 2.26684 11.215C1.44058 11.213 0.771197 10.5438 0.769043 9.71752C0.771018 8.89113 1.44045 8.2217 2.26684 8.21973H3.76463V9.71752ZM4.51925 9.71752C4.52122 8.89113 5.19065 8.2217 6.01704 8.21973C6.84331 8.22188 7.51254 8.89126 7.51451 9.71752V13.4674C7.51254 14.2938 6.84311 14.9632 6.01672 14.9652C5.19045 14.963 4.52122 14.2937 4.51925 13.4674V9.7172V9.71752Z" fill="#E01E5A"/>
<path d="M6.01704 3.70352C5.19078 3.70154 4.5214 3.03231 4.51925 2.20605C4.52122 1.37966 5.19065 0.710227 6.01704 0.708252C6.84331 0.710406 7.51254 1.37978 7.51451 2.20605V3.70352H6.01672H6.01704ZM6.01704 4.45813C6.84331 4.46028 7.51254 5.12966 7.51451 5.95593C7.51254 6.78219 6.84331 7.45157 6.01704 7.45372H2.26684C1.44045 7.45175 0.771018 6.78232 0.769043 5.95593C0.771018 5.12953 1.44045 4.4601 2.26684 4.45813H6.01704Z" fill="#36C5F0"/>
<path d="M12.0306 5.95593C12.0326 5.12953 12.702 4.4601 13.5284 4.45813C14.3548 4.4601 15.0243 5.12953 15.0262 5.95593C15.0243 6.78232 14.3548 7.45175 13.5284 7.45372H12.0306V5.95593ZM11.276 5.95593C11.2741 6.78219 10.6048 7.45157 9.77856 7.45372C8.95217 7.45175 8.28274 6.78232 8.28076 5.95593V2.20605C8.28274 1.37966 8.95217 0.710227 9.77856 0.708252C10.6048 0.710406 11.2741 1.37978 11.276 2.20605V5.95593Z" fill="#2EB67D"/>
<path d="M9.77856 11.9696C10.6048 11.9718 11.2741 12.6411 11.276 13.4674C11.2741 14.2937 10.6048 14.963 9.77856 14.9652C8.95217 14.9632 8.28274 14.2938 8.28076 13.4674V11.9696H9.77856ZM9.77856 11.215C8.95229 11.213 8.28292 10.5438 8.28076 9.71752C8.28274 8.89113 8.95217 8.2217 9.77856 8.21973H13.5281C14.3545 8.2217 15.0239 8.89113 15.0259 9.71752C15.0238 10.5438 14.3544 11.213 13.5281 11.215H9.77856Z" fill="#ECB22E"/>
</svg>
