<svg preserveAspectRatio="none" width="100%" height="100%" overflow="visible" style="display: block;" viewBox="0 0 124.849 34.9088" fill="none" xmlns="http://www.w3.org/2000/svg">
<g id="Sync Logo [Vectorized]">
<path id="Vector" d="M10.1927 7.21701C12.4191 6.91043 15.1434 7.56584 16.9632 8.91981C16.7674 9.66971 16.2798 10.8736 15.8769 11.524C15.3977 12.2058 14.688 11.6484 14.2073 11.4074C8.96378 8.77919 5.26897 13.6852 5.85321 18.6334C6.3993 23.2587 9.68374 25.3323 13.974 23.9431C14.538 23.7605 15.0956 23.325 15.6812 23.1796C15.8784 23.1267 16.0181 23.2915 16.1538 23.4039C16.4666 23.9889 17.0241 24.971 17.1375 25.5734C17.3781 27.0826 14.1126 27.6371 13.1059 27.7879C7.46991 28.6326 2.77751 24.9719 2.10785 19.3205C1.42366 13.5456 3.9802 8.03589 10.1927 7.21701Z" fill="var(--fill-0, white)"/>
<path id="Vector_2" d="M19.8301 7.02038C20.4534 7.01535 22.0711 6.91211 22.5369 7.22339C22.6438 7.54358 22.7145 26.9807 22.5601 27.645C22.3564 27.8644 22.411 27.8032 22.0938 27.8894C21.4842 27.8937 19.7207 27.9881 19.2762 27.7185C19.0966 27.0789 19.1282 7.64691 19.2507 7.24675C19.5096 7.02731 19.466 7.08648 19.8301 7.02038Z" fill="var(--fill-0, white)"/>
<path id="Vector_3" d="M30.3513 14.1271C33.105 13.8912 35.4186 14.5709 36.5998 17.3023C36.8873 18.1241 37.8058 19.3928 36.6478 19.9002C34.0779 21.0259 31.0267 21.8141 28.5111 22.9771C29.6442 25.1251 32.1045 25.547 34.2338 24.7404C34.8047 24.5242 35.3559 24.2425 35.9357 24.0553C36.1431 23.9884 36.2752 24.127 36.4223 24.2349C36.794 24.9413 37.0137 25.4576 37.2177 26.2228C35.0307 28.2101 29.7509 28.5398 27.3627 26.6785C22.7675 23.0973 24.1706 15.0951 30.3513 14.1271ZM30.7581 19.9309C31.6406 19.6279 32.9962 19.1162 33.8601 18.8841C33.0569 17.2321 32.2578 16.7958 30.4571 17.0111C28.6209 17.5577 28.2126 19.1547 28.055 20.8373C28.9093 20.5481 29.9041 20.186 30.7581 19.9309Z" fill="var(--fill-0, white)"/>
<path id="Vector_4" d="M45.1638 14.1732C46.9422 13.967 48.6141 14.9931 49.9754 15.9836C50.0373 15.4891 50.0216 14.5967 50.6866 14.5248C51.0682 14.4772 52.9466 14.3981 53.1531 14.6888C53.4471 15.1039 53.329 18.0743 53.3389 18.6269L53.4017 23.9647C53.4141 24.6853 53.628 26.9528 53.2877 27.4283C52.9829 27.6521 51.4829 27.665 51.0005 27.6932C49.8473 27.7604 49.9679 26.5623 49.9654 25.8583C49.7259 26.0193 49.4459 26.239 49.2096 26.4142C47.9409 27.1762 46.948 27.7736 45.4438 27.8883C39.047 28.3757 37.5503 20.0748 41.0882 16.0525C42.2586 14.7227 43.4564 14.3033 45.1638 14.1732ZM47.1883 24.7138C50.1678 24.0244 50.2116 22.0059 49.8754 19.394C49.6251 17.4565 47.0892 17.0085 45.5421 17.1415C41.0782 18.3235 42.0059 25.3017 47.1883 24.7138Z" fill="var(--fill-0, white)"/>
<path id="Vector_5" d="M69.853 7.08711C70.4089 7.00269 71.885 7.06549 72.3938 7.40789C72.6045 7.54917 72.4492 8.09036 72.3889 8.33686C72.2443 8.9312 72.1122 9.77774 71.643 10.22C71.0639 10.7656 70.3445 9.85613 69.7811 10.4942C68.8601 11.5382 69.0501 13.3724 69.055 14.6876C69.416 14.711 71.5852 14.6225 71.643 14.9167C72.2699 18.0918 71.2985 17.6573 69.0707 17.6386C69.0096 19.1109 69.2013 26.925 68.932 27.6885C68.585 27.9885 66.0665 27.9699 65.7138 27.707C65.4709 27.1021 65.6279 18.9266 65.6229 17.6378C64.2451 17.6784 63.9378 17.89 63.8288 16.4247C63.2977 19.3477 62.6137 17.1214 60.5073 18.6472C58.4885 20.5167 58.9957 23.0964 58.9709 25.557C58.9627 26.3446 59.0478 26.8228 58.8231 27.6192C58.7256 27.7242 58.6166 27.8584 58.4588 27.8588C57.8335 27.8602 56.1112 28.0122 55.6288 27.7202C55.6041 27.6607 55.5826 27.601 55.5685 27.5379C55.4132 26.855 55.4735 15.2692 55.652 15.0022C55.7395 14.8708 55.8733 14.8172 56.0253 14.7897C56.5606 14.6926 57.9706 14.613 58.4158 14.9456C58.9032 15.3094 58.8462 17.0029 58.9181 17.6006C60.6395 13.7519 62.2833 14.8863 65.6163 14.699C65.6675 12.4755 65.4081 10.5335 66.9024 8.6394C67.764 7.54727 68.528 7.25167 69.853 7.08711Z" fill="var(--fill-0, white)"/>
<path id="Vector_6" d="M80.5823 14.1859C84.3762 13.7365 87.8125 16.4569 88.2412 20.2501C88.6707 24.0433 85.9283 27.4611 82.1294 27.8689C78.3595 28.2735 74.9711 25.56 74.5449 21.7962C74.1195 18.0324 76.8173 14.6318 80.5823 14.1859ZM81.7668 24.7495C85.1221 24.197 85.5351 19.5014 83.1421 17.6048C82.4904 17.0879 81.6859 17.0851 80.8887 17.1331C76.9907 17.6725 77.1419 25.1093 81.7668 24.7495Z" fill="var(--fill-0, white)"/>
<path id="Vector_7" d="M96.8962 14.6482C97.533 14.6011 98.4037 14.4278 98.7787 15.0147C98.8522 15.508 98.5738 16.5636 98.4722 17.106C98.2228 18.6281 96.6864 17.6783 95.5869 18.4573C92.7487 20.4303 94.0976 24.5371 93.6532 27.4266C93.5392 28.1706 91.138 27.8508 90.592 27.779C90.4077 27.7548 90.3508 27.5801 90.2855 27.4404L90.3111 20.0741C90.3111 19.1128 90.2475 15.6217 90.4383 14.9671C90.5977 14.8354 90.7638 14.782 90.9711 14.7627C94.0704 14.4745 93.398 15.139 93.6995 17.591C94.3966 16.0297 95.1252 15.0405 96.8962 14.6482Z" fill="var(--fill-0, white)"/>
<path id="Vector_8" d="M108.998 14.4391C111.078 14.2387 112.451 14.8966 113.536 16.6465C113.901 16.3041 114.317 15.914 114.717 15.6177C116.012 14.6553 117.642 14.2568 119.236 14.5127C120.917 14.771 122.538 16.0124 122.636 17.8261C122.751 19.9438 122.673 22.0955 122.778 24.2201C122.832 25.2927 122.919 26.6422 122.748 27.6829C122.591 27.8419 122.314 27.8922 122.09 27.8849C119.36 27.7972 119.343 28.4931 119.35 25.5423L119.331 21.521C119.322 19.9775 119.63 17.4797 117.374 17.5341C116.383 17.5256 115.651 17.769 114.954 18.5035C112.98 20.5835 113.474 23.8937 113.5 26.5569C113.505 26.7564 113.514 27.2231 113.467 27.4033C113.424 27.5691 113.314 27.7096 113.163 27.7917C112.796 27.9939 110.903 27.881 110.447 27.8336C109.904 27.7771 110.089 26.0542 110.09 25.6194C110.096 23.634 110.177 21.615 110.118 19.6272C110.02 16.5169 106.521 17.1769 105.246 19.1425C103.611 21.5812 104.584 24.7279 104.137 27.4304C104.031 28.0662 102.694 27.8778 102.224 27.8968C100.534 27.9648 100.795 27.6391 100.82 26.1954C100.832 25.5297 100.865 24.7703 100.885 24.0966C100.937 22.4281 100.962 20.759 100.961 19.0897C100.956 18.2171 100.81 15.6229 101.124 14.9589C101.355 14.738 101.726 14.7622 102.021 14.7512C104.292 14.6662 103.949 14.9206 104.249 16.7637C105.722 15.1724 106.86 14.6084 108.998 14.4391Z" fill="var(--fill-0, white)"/>
</g>
</svg>
