<svg width="24" height="24" viewBox="0 0 24 24" fill="none" xmlns="http://www.w3.org/2000/svg">
  <path
    d="M16.365 1.43c0 1.14-.413 2.219-1.156 3.03-.79.86-2.086 1.527-3.269 1.44-.12-1.106.445-2.214 1.156-3.03C14.886 2.05 16.005 1.57 16.365 1.43ZM17.5 6.86c-2.4-.12-4.45 1.44-5.58 1.44-1.14 0-2.91-1.41-4.79-1.37-2.47.04-4.74 1.44-6 3.67-2.56 4.44-.66 11.01 1.84 14.61 1.24 1.79 2.71 3.79 4.65 3.71 1.86-.08 2.56-1.2 4.8-1.2 2.24 0 2.86 1.2 4.83 1.16 2-.04 3.26-1.82 4.49-3.62 1.41-2.04 1.99-4.02 2.02-4.12-.04-.02-3.89-1.49-3.93-5.92-.04-3.71 3.03-5.48 3.17-5.56-1.73-2.53-4.41-2.86-5.35-2.92Z"
    fill="#000000"
  />
</svg>
